<?xml version="1.0" encoding="UTF-8"?><svg id="Layer_2" xmlns="http://www.w3.org/2000/svg" viewBox="0 0 94.92401 135.23352"><defs><style>.cls-1{fill:#fff;}</style></defs><g id="Layer_1-2"><path class="cls-1" d="m47.46204,0s11.78094,15.78198,11.78094,24.867c0,6.50696-5.27496,11.78094-11.78094,11.78094s-11.78101-5.27399-11.78101-11.78094c0-9.08502,11.78101-24.867,11.78101-24.867Zm13.28912,135.23352h-26.57831L0,46.24158h21.29431c12.1344,0,21.97131,9.83691,21.97131,21.97137,0,16.20837-7.4046,20.28271-7.80988,28.45471-.36017,7.26379,5.88074,12.00623,12.00623,12.00623s12.36639-4.74243,12.00623-12.00623c-.40521-8.172-7.80988-12.24634-7.80988-28.45471,0-12.13446,9.83691-21.97137,21.97137-21.97137h21.29431l-34.17285,88.99194Z"/></g></svg>