<?xml version="1.0" encoding="UTF-8"?><svg id="Layer_2" xmlns="http://www.w3.org/2000/svg" viewBox="0 0 1050.62164 183"><g id="Layer_1-2"><path d="m772.11578,154.04926l-34.79907-90.62195h27.00696l12.5061,37.15497c4.89392,14.67999,5.61694,21.74799,5.97998,37.879h9.60693c.36108-16.13101.724-24.10501,5.255-37.879l11.96204-37.15497h26.28003l-32.98499,90.62195h-30.81299ZM278.16937,50.01636h29.90601c11.41797,0,19.93597,5.25598,19.93597,16.67297,0,11.60004-8.51801,16.85699-19.93597,16.85699h-29.90601v-33.52997Zm0,104.03296v-48.20996h23.01898c15.76801,0,22.47302,5.43701,24.46704,20.11697l3.80597,28.09299h29.362l-5.25702-30.448c-3.44299-19.75598-15.224-23.56195-36.06696-23.92395v-9.42603c15.40601-.72498,39.14801-2.71899,39.14801-29.724,0-20.117-16.12903-33.34802-43.31702-33.34802h-62.70898v126.87h27.54797Zm113.50293-57.2724c1.81305-11.41901,8.88104-17.58203,19.21204-17.58203,10.87396,0,17.39996,6.34503,18.487,17.58203h-37.69904Zm19.39404,60.17197c27.54901,0,38.96698-14.862,44.04102-26.461l-23.01801-8.87997c-3.80505,8.517-9.42401,15.76797-21.02301,15.76797-11.05701,0-19.57501-6.526-20.29999-22.47598h63.979c2.53796-30.26801-13.41205-54.19-43.86102-54.19-26.28003,0-45.85498,19.39099-45.85498,47.84698,0,29.72403,18.125,48.392,46.03699,48.392Zm96.55463-.36194c26.46204,0,42.04901-11.78,42.04901-29.905,0-17.21899-14.13696-25.01099-31.17297-28.27399l-12.50702-2.35602c-9.78699-1.81201-12.505-4.16901-12.505-8.88,0-4.89398,4.16803-8.70001,12.86804-8.70001,9.06195,0,15.58698,5.25403,18.30499,12.68604l21.20599-9.60602c-3.987-9.06201-15.586-20.84198-38.24304-20.84198-24.28595,0-38.96698,11.41699-38.96698,28.63599,0,17.76202,11.05701,24.10498,30.086,27.91101l12.87,2.53699c9.242,1.814,11.23602,5.43698,11.23602,9.60699,0,5.07501-4.71204,9.061-13.77502,9.061-17.57996,0-20.29901-13.23102-20.65997-15.22302l-23.38098,7.431c3.80597,15.94803,21.20496,25.91702,42.59094,25.91702Zm79.12653-59.81003c1.81299-11.41901,8.88098-17.58203,19.21191-17.58203,10.87402,0,17.39905,6.34503,18.48706,17.58203h-37.69897Zm19.39392,60.17197c27.54907,0,38.96704-14.862,44.04102-26.461l-23.01794-8.87997c-3.80505,8.517-9.42407,15.76797-21.02307,15.76797-11.05701,0-19.57489-6.526-20.29993-22.47598h63.97803c2.53699-30.26801-13.41101-54.19-43.86011-54.19-26.27991,0-45.85388,19.39099-45.85388,47.84698,0,29.72403,18.12396,48.392,46.03589,48.392Zm85.07996-2.8996v-34.79898c0-24.46698,8.15698-31.53601,26.64502-31.53601,3.07996,0,6.34192.17999,9.96802.54303v-26.46204c-1.45105-.17999-2.72009-.17999-5.43701-.17999-19.21301,0-26.64502,10.69403-30.63,29.362h-10.87708c4.16907-6.888,7.79407-18.125,7.79407-27.54999h-23.19897v90.62198h25.73596Zm322.78723,0v-34.79898c0-24.46698,8.15698-31.53601,26.64502-31.53601,3.07996,0,6.34192.17999,9.96802.54303v-26.46204c-1.45105-.17999-2.72009-.17999-5.43701-.17999-19.21301,0-26.64502,10.69403-30.63,29.362h-10.87708c4.16907-6.888,7.79407-18.125,7.79407-27.54999h-23.19897v90.62198h25.73596Zm-41.41492,0V62.88831h-25.88989v91.16098h25.88989Zm.7406-103.61581v-24.43298h-27.53796v24.43298h27.53796Zm-89.07935,86.0358c-12.323,0-20.84204-8.69901-20.84204-27.36899,0-18.66797,8.51904-28.091,20.84204-28.091,12.32495,0,20.84399,9.42303,20.84399,28.091,0,18.66998-8.51904,27.36899-20.84399,27.36899Zm0,20.48001c27.72998,0,47.66699-18.668,47.66699-48.21002,0-28.99896-19.93701-48.02997-47.66699-48.02997s-47.66699,19.03101-47.66699,48.02997c0,27.91101,19.93591,48.21002,47.66699,48.21002ZM91.5,0C40.966,0,0,40.966,0,91.5s40.966,91.5,91.5,91.5,91.5-40.966,91.5-91.5S142.034,0,91.5,0Zm.00006,19.00031s11.78094,15.78198,11.78094,24.867c0,6.50696-5.27496,11.78094-11.78094,11.78094s-11.78101-5.27399-11.78101-11.78094c0-9.08502,11.78101-24.867,11.78101-24.867Zm13.28912,135.23352h-26.57831l-34.17285-88.99194h21.29431c12.1344,0,21.97131,9.83691,21.97131,21.97137,0,16.20837-7.4046,20.28271-7.80988,28.45471-.36017,7.26379,5.88074,12.00623,12.00623,12.00623s12.36639-4.74243,12.00623-12.00623c-.40521-8.172-7.80988-12.24634-7.80988-28.45471,0-12.13446,9.83691-21.97137,21.97137-21.97137h21.29431l-34.17285,88.99194Z"/></g></svg>